<svg width="566" height="98" viewBox="0 0 566 98" fill="none" xmlns="http://www.w3.org/2000/svg">
<g clip-path="url(#clip0_2_45)">
<path d="M400.91 89.82C400.59 89.58 400.21 89.4 399.81 89.26C400.31 89.04 400.73 88.72 401.05 88.3C401.49 87.72 401.71 87.02 401.71 86.2C401.71 85.38 401.53 84.72 401.19 84.16C400.83 83.6 400.33 83.18 399.65 82.88C398.97 82.6 398.13 82.46 397.15 82.46H390.77V97.46H397.37C398.15 97.46 398.87 97.36 399.49 97.18C400.11 96.98 400.65 96.7 401.11 96.34C401.57 95.96 401.91 95.5 402.15 94.94C402.39 94.38 402.51 93.74 402.51 93.02C402.51 92.34 402.37 91.72 402.09 91.18C401.81 90.64 401.43 90.2 400.93 89.84M393.47 84.98H396.67C397.41 84.98 397.97 85.14 398.37 85.46C398.75 85.78 398.95 86.22 398.95 86.8C398.95 87.16 398.87 87.48 398.69 87.74C398.51 88.02 398.29 88.22 397.97 88.38C397.67 88.54 397.31 88.62 396.89 88.62H393.49V84.98H393.47ZM399.41 94.02C399.21 94.32 398.93 94.56 398.57 94.72C398.21 94.88 397.77 94.96 397.23 94.96H393.47V91.02H397.11C397.63 91.02 398.09 91.1 398.49 91.24C398.87 91.4 399.17 91.6 399.37 91.9C399.57 92.18 399.69 92.52 399.69 92.92C399.69 93.34 399.59 93.72 399.41 94.02Z" fill="#0B1539"/>
<path d="M417.37 82.46L413.65 88.32L409.57 82.46H406.31L412.23 90.82V97.46H415.01V90.78L420.51 82.46H417.37Z" fill="#0B1539"/>
<path d="M437.11 82.46H435.83V97.46H438.61V91.32H444.85V88.78H438.61V85.04H445.77V82.46H438.61H437.11Z" fill="#0B1539"/>
<path d="M457.21 91.04H463.19V88.54H457.21V85H464.29V82.46H454.47V97.46H464.37V94.94H457.21V91.04Z" fill="#0B1539"/>
<path d="M472.69 85.04H476.97V97.46H479.75V85.04H484.17V82.46H472.69V85.04Z" fill="#0B1539"/>
<path d="M493.79 86.36C494.21 85.92 494.71 85.58 495.29 85.34C495.87 85.1 496.49 84.98 497.15 84.98C497.59 84.98 498.03 85.04 498.45 85.18C498.87 85.32 499.27 85.52 499.67 85.78C500.07 86.04 500.45 86.36 500.81 86.76L502.59 84.82C502.21 84.32 501.73 83.88 501.15 83.5C500.57 83.12 499.95 82.82 499.27 82.6C498.59 82.38 497.87 82.28 497.15 82.28C496.07 82.28 495.09 82.48 494.17 82.86C493.25 83.24 492.45 83.78 491.77 84.48C491.09 85.18 490.55 86 490.17 86.92C489.79 87.84 489.59 88.86 489.59 89.94C489.59 91.02 489.77 92.1 490.13 93.06C490.49 94 491.01 94.84 491.67 95.52C492.33 96.22 493.11 96.74 494.01 97.12C494.91 97.48 495.91 97.68 496.99 97.68C497.69 97.68 498.39 97.6 499.09 97.42C499.79 97.24 500.43 97 501.01 96.68C501.59 96.36 502.03 96.02 502.39 95.64L501.01 93.44C500.69 93.76 500.35 94.02 499.97 94.26C499.59 94.5 499.19 94.68 498.73 94.8C498.29 94.92 497.83 95 497.37 95C496.65 95 495.97 94.88 495.37 94.64C494.77 94.4 494.25 94.06 493.81 93.62C493.37 93.18 493.03 92.66 492.81 92.04C492.59 91.42 492.45 90.74 492.45 89.98C492.45 89.22 492.57 88.56 492.81 87.96C493.05 87.36 493.39 86.82 493.81 86.38" fill="#0B1539"/>
<path d="M519.15 88.68H512.31V82.46H509.53V97.46H512.31V91.3H519.15V97.46H521.93V82.46H519.15V88.68Z" fill="#0B1539"/>
<path d="M531.65 94.28C531.17 94.28 530.77 94.44 530.49 94.76C530.19 95.08 530.05 95.5 530.05 96C530.05 96.54 530.19 96.96 530.47 97.26C530.75 97.56 531.15 97.7 531.67 97.7C532.15 97.7 532.55 97.54 532.83 97.22C533.13 96.9 533.27 96.48 533.27 95.98C533.27 95.42 533.13 95 532.85 94.7C532.57 94.4 532.17 94.26 531.67 94.26" fill="#0B1539"/>
<path d="M546.93 82.46L541.09 97.46H543.87L545.17 94.04H551.17L552.47 97.46H555.37L549.57 82.46H546.95H546.93ZM546.09 91.62L547.09 89C547.19 88.72 547.31 88.4 547.43 88.04C547.55 87.68 547.67 87.32 547.81 86.92C547.95 86.54 548.05 86.16 548.17 85.8V85.7C548.31 86.08 548.43 86.48 548.57 86.9C548.71 87.34 548.85 87.74 548.97 88.12C549.09 88.48 549.19 88.76 549.25 88.94L550.27 91.62H546.11H546.09Z" fill="#0B1539"/>
<path d="M564.03 82.42H561.21V97.46H564.03V82.42Z" fill="#0B1539"/>
<path d="M472.09 0H465.23V50.94H472.09V0Z" fill="#5F38FB"/>
<path d="M511.37 18.12C508.47 14.34 503.73 12.2 498.05 12.2C487.81 12.2 480.07 20.7 480.07 32C480.07 43.2999 487.79 51.72 498.05 51.72C503.75 51.72 508.49 49.5999 511.37 45.82V50.9599H518.23V12.96H511.37V18.12ZM499.33 45C492.23 45 487.07 39.54 487.07 32C487.07 24.46 492.23 18.92 499.33 18.92C506.43 18.92 511.35 24.66 511.35 32C511.35 39.34 506.19 45 499.33 45Z" fill="#5F38FB"/>
<path d="M547.89 12.2C542.31 12.2 537.47 14.38 534.59 18.12V0H527.73V50.94H534.37V45.78C537.27 49.56 542.09 51.68 547.91 51.68C558.15 51.68 565.89 43.2 565.89 31.96C565.89 20.72 558.17 12.16 547.91 12.16M546.61 45C539.75 45 534.59 39.4 534.59 32C534.59 24.6 539.87 18.92 546.61 18.92C553.71 18.92 558.85 24.42 558.85 32C558.85 39.58 553.69 45 546.61 45Z" fill="#5F38FB"/>
<path d="M90.81 12.96H83.95V50.96H90.81V12.96Z" fill="#000D3D"/>
<path d="M119.43 12.2C114.43 12.2 109.97 14.32 107.19 17.98V12.96H100.33V50.9599H107.19V29.66C107.19 23.54 111.77 18.92 117.85 18.92C123.93 18.92 126.47 21.8799 126.47 28.82V50.9599H133.33V28.06C133.33 17.54 128.65 12.2 119.45 12.2" fill="#000D3D"/>
<path d="M161.33 12.2C156.33 12.2 151.87 14.34 149.09 17.98V12.96H142.23V50.9599H149.09V29.66C149.09 23.54 153.67 18.92 159.75 18.92C165.83 18.92 168.37 21.8799 168.37 28.82V50.9599H175.23V28.06C175.23 17.54 170.55 12.2 161.35 12.2" fill="#000D3D"/>
<path d="M202.55 12.2C191.37 12.2 182.61 20.9 182.61 32C182.61 43.1 191.37 51.72 202.55 51.72C213.73 51.72 222.49 43.06 222.49 32C222.49 20.9399 213.73 12.2 202.55 12.2ZM202.55 45C195.17 45 189.61 39.4 189.61 32C189.61 24.6 195.17 18.92 202.55 18.92C209.93 18.92 215.47 24.54 215.47 32C215.47 39.4599 209.91 45 202.55 45Z" fill="#000D3D"/>
<path d="M247.03 36.84C246.13 38.86 245.37 41.08 244.89 42.56C244.41 41.08 243.65 38.86 242.75 36.84L232.15 12.96H225.11L241.89 51.18H247.91L264.61 12.96H257.57L247.05 36.84H247.03Z" fill="#000D3D"/>
<path d="M298.51 18.12C295.61 14.34 290.87 12.2 285.19 12.2C274.95 12.2 267.21 20.7 267.21 32C267.21 43.2999 274.93 51.72 285.19 51.72C290.89 51.72 295.63 49.5999 298.51 45.82V50.9599H305.37V12.96H298.51V18.12ZM286.49 45C279.39 45 274.25 39.54 274.25 32C274.25 24.46 279.41 18.92 286.49 18.92C293.57 18.92 298.51 24.66 298.51 32C298.51 39.34 293.35 45 286.49 45Z" fill="#000D3D"/>
<path d="M378.23 12.2C367.05 12.2 358.29 20.9 358.29 32C358.29 43.1 367.05 51.72 378.23 51.72C389.41 51.72 398.17 43.06 398.17 32C398.17 20.9399 389.41 12.2 378.23 12.2ZM378.23 45C370.85 45 365.29 39.4 365.29 32C365.29 24.6 370.85 18.92 378.23 18.92C385.61 18.92 391.17 24.54 391.17 32C391.17 39.4599 385.61 45 378.23 45Z" fill="#000D3D"/>
<path d="M425.01 12.2C420.01 12.2 415.55 14.32 412.75 17.98V12.96H405.89V50.9599H412.75V29.66C412.75 23.54 417.33 18.92 423.41 18.92C429.49 18.92 432.03 21.8799 432.03 28.82V50.9599H438.89V28.06C438.89 17.54 434.21 12.2 425.01 12.2Z" fill="#000D3D"/>
<path d="M326.21 45.74C323.87 45.74 322.09 44.16 322.09 39.6V19.24H334.67V13.2H322.09V5.40002H315.07V39.58C315.07 48.22 319.05 52.14 326.11 52.14C328.73 52.14 331.97 51.1 334.79 48.76L330.37 44.34C329.25 45.24 327.77 45.74 326.19 45.74" fill="#000D3D"/>
<path d="M90.8299 0.619995H83.9299V7.52H90.8299V0.619995Z" fill="#000D3D"/>
<path d="M350.57 12.96H343.71V50.96H350.57V12.96Z" fill="#000D3D"/>
<path d="M350.57 0.619995H343.67V7.52H350.57V0.619995Z" fill="#000D3D"/>
<path d="M52.3699 27.38C52.8299 28.08 53.0899 28.9 53.0899 29.76C53.0899 30.9 52.6499 31.98 51.8299 32.78C51.0099 33.58 49.9499 34.02 48.8099 34.02C47.9699 34.02 47.1299 33.78 46.4299 33.3C45.7299 32.84 45.1899 32.16 44.8499 31.38C44.5299 30.6 44.4499 29.74 44.6099 28.92C44.7699 28.1 45.1899 27.32 45.7899 26.74C46.3899 26.14 47.1499 25.74 47.9699 25.58C48.7899 25.42 49.6499 25.5 50.4299 25.82C51.2099 26.14 51.8699 26.7 52.3499 27.4L52.3699 27.38Z" fill="#E85D2E"/>
<path d="M50.4499 47.44C49.6699 47.12 48.8099 47.04 47.9899 47.2C47.1699 47.36 46.4099 47.78 45.8099 48.36C45.2099 48.96 44.8099 49.72 44.6299 50.54C44.4699 51.36 44.5499 52.22 44.8699 53C45.1899 53.78 45.7299 54.44 46.4499 54.92C47.1499 55.38 47.9699 55.64 48.8299 55.64C49.9699 55.64 51.0499 55.2 51.8499 54.4C52.6499 53.6 53.1099 52.52 53.1099 51.38C53.1099 50.54 52.8699 49.7 52.3899 49C51.9099 48.3 51.2499 47.76 50.4699 47.42L50.4499 47.44Z" fill="#23C765"/>
<path d="M29.13 47.44C28.35 47.12 27.49 47.04 26.67 47.2C25.85 47.36 25.09 47.78 24.49 48.36C23.89 48.96 23.49 49.72 23.31 50.54C23.15 51.36 23.23 52.22 23.55 53C23.87 53.78 24.41 54.44 25.13 54.92C25.83 55.38 26.65 55.64 27.51 55.64C28.65 55.64 29.73 55.2 30.53 54.4C31.33 53.6 31.79 52.52 31.79 51.38C31.79 50.54 31.55 49.7 31.07 49C30.59 48.3 29.93 47.76 29.15 47.42L29.13 47.44Z" fill="#5F38FB"/>
<path fill-rule="evenodd" clip-rule="evenodd" d="M32.91 3.28003H22.09V14.1H32.91V3.28003ZM42.83 3.28003H53.09V13.54H42.83V3.28003ZM22.37 24.64H32.63V34.9H22.37V24.64ZM0.75 3.30005H12.15V14.7H0.75V3.30005ZM10.97 45.4H0.709961V55.66H10.97V45.4ZM0.709961 24.36H11.53V35.18H0.709961V24.36Z" fill="url(#paint0_linear_2_45)"/>
</g>
<defs>
<linearGradient id="paint0_linear_2_45" x1="1" y1="3" x2="53" y2="56" gradientUnits="userSpaceOnUse">
<stop stop-color="#3918BE"/>
<stop offset="1" stop-color="#5F38FB"/>
</linearGradient>
<clipPath id="clip0_2_45">
<rect width="565.16" height="97.7" fill="white" transform="translate(0.709961)"/>
</clipPath>
</defs>
</svg>
